HIERARCHY
ROOT Hips
{
	OFFSET 0.00000 0.00000 0.00000
	CHANNELS 6 Xposition Yposition Zposition Zrotation Yrotation Xrotation 
	JOINT LHipJoint
	{
		OFFSET 0 0 0
		CHANNELS 3 Zrotation Yrotation Xrotation
		JOINT LeftUpLeg
		{
			OFFSET 1.84395 -1.68683 0.74144
			CHANNELS 3 Zrotation Yrotation Xrotation
			JOINT LeftLeg
			{
				OFFSET 2.27037 -6.23779 0.00000
				CHANNELS 3 Zrotation Yrotation Xrotation
				JOINT LeftFoot
				{
					OFFSET 2.56918 -7.05877 0.00000
					CHANNELS 3 Zrotation Yrotation Xrotation
					JOINT LeftToeBase
					{
						OFFSET 0.22276 -0.61202 1.71784
						CHANNELS 3 Zrotation Yrotation Xrotation
						End Site
						{
							OFFSET 0.00000 -0.00000 0.91613
						}
					}
				}
			}
		}
	}
	JOINT RHipJoint
	{
		OFFSET 0 0 0
		CHANNELS 3 Zrotation Yrotation Xrotation
		JOINT RightUpLeg
		{
			OFFSET -1.76833 -1.68684 0.74144
			CHANNELS 3 Zrotation Yrotation Xrotation
			JOINT RightLeg
			{
				OFFSET -2.49360 -6.85110 0.00000
				CHANNELS 3 Zrotation Yrotation Xrotation
				JOINT RightFoot
				{
					OFFSET -2.55538 -7.02085 0.00000
					CHANNELS 3 Zrotation Yrotation Xrotation
					JOINT RightToeBase
					{
						OFFSET -0.21516 -0.59115 1.68050
						CHANNELS 3 Zrotation Yrotation Xrotation
						End Site
						{
							OFFSET -0.00000 -0.00000 0.89604
						}
					}
				}
			}
		}
	}
	JOINT LowerBack
	{
		OFFSET 0 0 0
		CHANNELS 3 Zrotation Yrotation Xrotation
		JOINT Spine
		{
			OFFSET 0.06382 1.72312 -0.19613
			CHANNELS 3 Zrotation Yrotation Xrotation
			JOINT Spine1
			{
				OFFSET -0.00055 1.73507 0.23859
				CHANNELS 3 Zrotation Yrotation Xrotation
				JOINT Neck
				{
					OFFSET 0 0 0
					CHANNELS 3 Zrotation Yrotation Xrotation
					JOINT Neck1
					{
						OFFSET 0.03638 1.65562 0.09633
						CHANNELS 3 Zrotation Yrotation Xrotation
						JOINT Head
						{
							OFFSET 0.06388 1.62807 -0.32386
							CHANNELS 3 Zrotation Yrotation Xrotation
							End Site
							{
								OFFSET 0.00995 1.67644 -0.12021
							}
						}
					}
				}
				JOINT LeftShoulder
				{
					OFFSET 0 0 0
					CHANNELS 3 Zrotation Yrotation Xrotation
					JOINT LeftArm
					{
						OFFSET 3.09648 1.42991 0.28122
						CHANNELS 3 Zrotation Yrotation Xrotation
						JOINT LeftForeArm
						{
							OFFSET 5.11878 -0.00000 -0.00000
							CHANNELS 3 Zrotation Yrotation Xrotation
							JOINT LeftHand
							{
								OFFSET 3.59971 -0.00000 0.00000
								CHANNELS 3 Zrotation Yrotation Xrotation
								JOINT LeftFingerBase
								{
									OFFSET 0 0 0
									CHANNELS 3 Zrotation Yrotation Xrotation
									JOINT LeftHandIndex1
									{
										OFFSET 0.62877 -0.00000 0.00000
										CHANNELS 3 Zrotation Yrotation Xrotation
										End Site
										{
											OFFSET 0.50693 -0.00000 0.00000
										}
									}
								}
								JOINT LThumb
								{
									OFFSET 0 0 0
									CHANNELS 3 Zrotation Yrotation Xrotation
									End Site
									{
										OFFSET 0.51467 -0.00000 0.51467
									}
								}
							}
						}
					}
				}
				JOINT RightShoulder
				{
					OFFSET 0 0 0
					CHANNELS 3 Zrotation Yrotation Xrotation
					JOINT RightArm
					{
						OFFSET -3.33565 1.14597 0.05047
						CHANNELS 3 Zrotation Yrotation Xrotation
						JOINT RightForeArm
						{
							OFFSET -5.49020 -0.00000 0.00000
							CHANNELS 3 Zrotation Yrotation Xrotation
							JOINT RightHand
							{
								OFFSET -3.20659 -0.00000 -0.00000
								CHANNELS 3 Zrotation Yrotation Xrotation
								JOINT RightFingerBase
								{
									OFFSET 0 0 0
									CHANNELS 3 Zrotation Yrotation Xrotation
									JOINT RightHandIndex1
									{
										OFFSET -0.69188 -0.00000 0.00000
										CHANNELS 3 Zrotation Yrotation Xrotation
										End Site
										{
											OFFSET -0.55781 -0.00000 0.00000
										}
									}
								}
								JOINT RThumb
								{
									OFFSET 0 0 0
									CHANNELS 3 Zrotation Yrotation Xrotation
									End Site
									{
										OFFSET -0.56633 -0.00000 0.56633
									}
								}
							}
						}
					}
				}
			}
		}
	}
}
MOTION
Frames: 13
Frame Time: .0083333
-0.3790 16.7257 7.0991 -1.5926 -7.5084 76.9518 0.0000 0.0000 0.0000 10.9752 -10.8461 -88.5161 0.3385 3.7387 10.3428 0.0484 12.1954 -17.9726 6.2707 14.6856 46.0586 0.0000 0.0000 0.0000 -16.6353 18.1362 -88.7553 -0.1020 -2.0591 5.6690 0.7790 -15.5429 -8.0429 -1.4126 -7.5171 21.2566 -3.7910 5.2005 42.9127 11.5912 7.0985 2.7854 11.7826 3.7108 -20.3155 4.8948 -0.3015 -3.2375 -12.1606 -2.1324 -15.6930 -4.5414 -0.8213 -4.2638 -0.0000 -0.0000 0.0000 -136.1693 -70.3206 102.7130 34.3419 -44.3365 -14.3515 -0.0000 0.0000 -29.1981 47.9063 -24.1455 -24.3615 -7.1250 0.0000 -0.0000 10.9047 -3.2525 -11.7152 -0.0000 -0.0000 0.0000 55.0869 74.6078 18.2071 -36.1434 45.6115 -15.6249 0.0000 -0.0000 -14.1604 -11.2105 -30.5965 5.7605 7.1250 -0.0000 -0.0000 23.1041 -59.5450 -8.4820
-0.3949 16.7489 7.0948 -1.8577 -6.7501 76.1375 0.0000 0.0000 0.0000 11.5285 -10.7931 -87.7860 0.3490 3.7959 10.5031 0.0423 12.1469 -17.8304 6.2117 14.6304 45.8255 0.0000 0.0000 0.0000 -14.8230 18.6388 -87.8471 -0.1025 -2.0647 5.6844 0.7116 -14.8963 -7.8434 -1.4606 -7.6382 21.6205 -3.7882 4.7579 43.3244 11.3615 6.5423 2.4518 11.8415 3.5112 -20.7029 4.5745 0.2161 -3.0779 -12.3478 -1.3434 -15.1190 -4.5570 -0.3947 -4.0450 0.0000 0.0000 0.0000 -123.7422 -68.5164 92.4695 42.0438 -49.2352 -19.9737 -0.0000 0.0000 -29.6605 50.8067 -25.7054 -28.0107 -7.1250 0.0000 -0.0000 12.0831 -6.5882 -13.6815 0.0000 0.0000 0.0000 62.6542 71.4537 28.4431 -43.2448 49.8790 -20.8877 0.0000 -0.0000 -15.4022 -12.4158 -30.4254 6.3616 7.1250 -0.0000 -0.0000 21.7170 -59.6652 -8.0046
-0.4143 16.7732 7.0891 -2.1132 -6.0333 75.4123 0.0000 0.0000 0.0000 12.0801 -10.6900 -87.1939 0.3643 3.8771 10.7310 0.0303 12.2070 -17.7590 6.1263 14.5496 45.4866 0.0000 0.0000 0.0000 -13.0614 19.0720 -86.9863 -0.1015 -2.0540 5.6550 0.6496 -14.2725 -7.6533 -1.4682 -7.6572 21.6776 -3.9023 4.3559 43.5558 11.1166 5.9684 2.1733 11.9573 3.3128 -20.9633 4.3168 0.7374 -3.0534 -12.4994 -0.5637 -14.6545 -4.5706 0.0168 -3.8396 0.0000 0.0000 0.0000 -113.9708 -66.1100 84.2037 50.6571 -53.2571 -26.6998 -0.0000 0.0000 -27.1045 52.0374 -25.7141 -29.0780 -7.1250 0.0000 -0.0000 12.7498 -7.2480 -14.6013 0.0000 0.0000 0.0000 67.9924 68.4041 36.1328 -51.4841 53.5768 -27.3639 0.0000 -0.0000 -15.2543 -13.3078 -29.8669 6.7180 7.1250 -0.0000 -0.0000 20.3584 -59.3513 -7.3234
-0.4331 16.7990 7.0872 -2.3224 -5.2977 74.6192 0.0000 0.0000 0.0000 12.6273 -10.6739 -86.5604 0.3822 3.9703 10.9931 0.0241 12.2803 -17.7806 6.0752 14.5008 45.2828 0.0000 0.0000 0.0000 -11.2277 19.4353 -85.9501 -0.0971 -2.0094 5.5316 0.5934 -13.6727 -7.4258 -1.4188 -7.5329 21.3042 -3.9724 3.9638 43.9716 10.8824 5.4217 1.8305 12.0886 3.1243 -21.2483 3.7697 1.2445 -3.2433 -12.3330 0.2372 -14.0731 -4.4281 0.4275 -3.5694 0.0000 0.0000 0.0000 -106.4657 -63.3594 78.1094 60.3937 -56.4139 -34.6689 -0.0000 0.0000 -24.1399 54.7449 -26.2836 -32.0651 -7.1250 0.0000 -0.0000 14.0366 -9.5096 -16.6275 0.0000 0.0000 0.0000 71.9235 65.5571 42.3502 -60.6179 56.4723 -34.8557 0.0000 -0.0000 -14.1698 -13.8382 -28.9509 6.7998 7.1250 -0.0000 -0.0000 19.1453 -58.6120 -6.5245
-0.4501 16.8223 7.0846 -2.4326 -4.9524 73.6195 0.0000 0.0000 0.0000 12.7018 -10.8446 -85.7051 0.4019 4.0700 11.2737 0.0310 12.2293 -17.7993 6.0665 14.4925 45.2481 0.0000 0.0000 0.0000 -9.7555 19.6164 -84.7337 -0.0932 -1.9690 5.4201 0.5477 -13.1413 -7.0795 -1.3271 -7.2954 20.5934 -4.3439 3.7152 44.4825 10.5386 4.8688 1.6000 12.2106 2.9501 -21.5561 2.6884 1.6507 -3.8656 -11.3824 1.0234 -13.0107 -3.9357 0.7957 -3.1105 0.0000 0.0000 0.0000 -100.7802 -60.5128 73.7066 70.9532 -58.5839 -43.5835 -0.0000 0.0000 -20.7900 55.1659 -20.1405 -26.3256 -7.1250 0.0000 -0.0000 16.0332 -1.6210 -17.1591 0.0000 0.0000 0.0000 74.8409 62.9052 47.3890 -70.5761 58.5253 -43.2617 0.0000 -0.0000 -12.9210 -14.6606 -28.4724 7.1092 7.1250 -0.0000 -0.0000 17.9625 -58.3405 -5.9859
-0.4660 16.8411 7.0784 -2.4653 -5.0905 72.5094 0.0000 0.0000 0.0000 12.2291 -11.0835 -84.6509 0.4153 4.1365 11.4609 0.0333 12.2045 -17.7941 6.0526 14.4791 45.1923 0.0000 0.0000 0.0000 -8.7750 19.7211 -83.4881 -0.0922 -1.9588 5.3919 0.5051 -12.6082 -6.6285 -1.1694 -6.8644 19.3144 -5.1283 3.5769 45.0591 9.9103 4.1436 1.5333 12.2904 2.7058 -21.5888 3.1173 2.2338 -4.3610 -11.9989 1.8061 -12.7346 -4.1959 1.1764 -2.8710 -0.0000 0.0000 0.0000 -95.5153 -58.2280 69.6515 81.6805 -59.7368 -52.8015 -0.0000 0.0000 -17.2093 58.5675 -27.3128 -36.8976 -7.1250 0.0000 -0.0000 15.7359 -13.2960 -19.5885 -0.0000 0.0000 0.0000 77.7767 61.0473 52.0304 -80.8224 59.6793 -52.0606 0.0000 -0.0000 -11.7255 -15.7289 -28.3866 7.6261 7.1250 -0.0000 -0.0000 16.7868 -58.4943 -5.6416
-0.4855 16.8631 7.0789 -2.7184 -4.3288 71.8201 0.0000 0.0000 0.0000 12.8566 -11.0162 -84.1699 0.4395 4.2537 11.7914 0.0370 12.2220 -17.8653 6.0506 14.4772 45.1845 0.0000 0.0000 0.0000 -6.9193 20.0058 -82.5598 -0.0929 -1.9658 5.4111 0.4490 -11.9093 -6.3036 -1.0601 -6.5463 18.3781 -5.1130 3.2057 45.2738 9.4746 3.5853 1.4279 12.0642 2.4618 -21.5741 3.3912 2.7483 -4.7946 -12.1394 2.5464 -12.3819 -4.2753 1.5246 -2.6293 0.0000 0.0000 0.0000 -90.6552 -56.1823 65.7354 91.6659 -59.9895 -61.4426 -0.0000 0.0000 -13.3069 60.4454 -27.7402 -39.3818 -7.1250 0.0000 -0.0000 16.5808 -15.1971 -21.1095 0.0000 0.0000 0.0000 80.5945 59.6543 56.4499 -90.3888 59.9994 -60.3367 0.0000 -0.0000 -10.6751 -16.5685 -27.9524 7.9391 7.1250 -0.0000 -0.0000 15.6273 -58.2609 -5.1509
-0.5052 16.8860 7.0842 -3.0711 -3.0329 71.2974 0.0000 0.0000 0.0000 14.0949 -10.8772 -83.9284 0.4677 4.3865 12.1665 0.0436 12.2142 -17.9387 6.0338 14.4611 45.1174 0.0000 0.0000 0.0000 -4.5105 20.3237 -81.6966 -0.0920 -1.9557 5.3833 0.3939 -11.1740 -5.9490 -0.9474 -6.1990 17.3629 -4.5934 2.7933 45.3927 9.2522 3.2905 1.2911 11.6741 2.2896 -21.6526 3.5455 3.0076 -4.7653 -12.3768 2.8751 -12.5235 -4.3778 1.7005 -2.6407 -0.0000 0.0000 0.0000 -86.6383 -54.4607 62.3284 100.5323 -59.5767 -69.1082 -0.0000 0.0000 -9.3353 61.6613 -28.7258 -41.7063 -7.1250 0.0000 -0.0000 16.8873 -17.3467 -21.9457 -0.0000 0.0000 0.0000 82.6616 58.7246 60.2705 -98.4962 59.7255 -67.3512 0.0000 -0.0000 -9.1422 -17.3669 -27.1637 8.1257 7.1250 -0.0000 -0.0000 14.3144 -57.6669 -4.5003
-0.5186 16.9009 7.0830 -3.2554 -2.5560 70.4783 0.0000 0.0000 0.0000 14.3419 -10.9894 -83.1696 0.4752 4.4209 12.2639 0.0314 12.2629 -17.8504 5.9524 14.3820 44.7903 0.0000 0.0000 0.0000 -2.9409 20.4323 -80.7184 -0.0941 -1.9784 5.4461 0.3428 -10.4400 -5.5800 -0.8693 -5.9447 16.6240 -4.9101 2.7278 45.7741 8.9025 2.9669 1.1281 11.6186 2.1927 -21.8830 3.9472 3.0162 -3.9223 -13.2384 2.7143 -13.4655 -4.7473 1.6896 -3.0417 -0.0000 -0.0000 0.0000 -82.9650 -52.9194 58.9876 108.1747 -58.7143 -75.6718 -0.0000 0.0000 -5.4682 62.4791 -29.1587 -43.0800 -7.1250 0.0000 -0.0000 17.1661 -18.5227 -22.5525 -0.0000 -0.0000 0.0000 84.2803 58.2262 63.9004 -104.8074 59.1551 -72.7872 0.0000 -0.0000 -6.3313 -18.4151 -26.7921 8.5351 7.1250 -0.0000 -0.0000 13.0002 -57.5270 -4.0333
-0.5312 16.9129 7.0804 -3.4698 -2.1048 69.7708 0.0000 0.0000 0.0000 14.5932 -11.0512 -82.4847 0.4776 4.4320 12.2952 0.0078 12.3998 -17.7384 5.8446 14.2760 44.3547 0.0000 0.0000 0.0000 -1.4289 20.5076 -79.8465 -0.0957 -1.9950 5.4918 0.2942 -9.6945 -5.2608 -0.8227 -5.7874 16.1688 -5.1023 3.6544 45.7769 9.2646 4.1452 0.8117 11.5271 2.7428 -22.6951 2.1890 2.5550 -3.8074 -12.3810 2.3323 -11.7989 -4.1491 1.4936 -2.6525 0.0000 -0.0000 0.0000 -84.0865 -51.7107 60.1925 114.0644 -57.6946 -80.6791 -0.0000 0.0000 -1.8557 63.5374 -29.5782 -44.7598 -7.1250 0.0000 -0.0000 17.5733 -19.8943 -23.3741 0.0000 -0.0000 0.0000 80.2227 57.5575 62.4257 -109.9085 58.4481 -77.1515 0.0000 -0.0000 -3.4264 -19.8443 -26.9422 9.2867 7.1250 -0.0000 -0.0000 11.5622 -57.9885 -3.7076
-0.5422 16.9266 7.0785 -3.7242 -1.2188 69.3731 0.0000 0.0000 0.0000 15.3794 -11.0572 -82.2207 0.4851 4.4660 12.3915 -0.0146 12.5619 -17.6775 5.7559 14.1876 43.9941 0.0000 0.0000 0.0000 0.4486 20.5045 -79.1654 -0.0932 -1.9693 5.4207 0.2506 -8.9742 -4.9773 -0.7893 -5.6712 15.8335 -4.2869 4.5724 45.5859 9.5850 5.8508 0.4319 10.4821 3.3574 -23.5784 0.2701 1.2549 -1.8841 -12.0558 0.4791 -12.0085 -3.7282 0.6977 -3.1981 0.0000 0.0000 0.0000 -85.9727 -51.4278 62.7846 118.5556 -56.6827 -84.4545 -0.0000 -0.0000 1.1747 64.3593 -29.9335 -46.1119 -7.1250 0.0000 -0.0000 17.8785 -21.0094 -24.0028 0.0000 0.0000 0.0000 74.5256 57.2816 58.9439 -113.1354 57.8777 -79.8931 0.0000 -0.0000 -0.7156 -21.8949 -26.9882 10.3361 7.1250 -0.0000 -0.0000 9.3707 -58.4950 -3.1101
-0.5494 16.9412 7.0789 -4.0401 0.1089 69.2414 0.0000 0.0000 0.0000 16.6959 -10.9888 -82.3021 0.4923 4.4987 12.4842 -0.0303 12.6793 -17.6416 5.7221 14.1536 43.8561 0.0000 0.0000 0.0000 2.7268 20.4555 -78.6235 -0.0852 -1.8825 5.1811 0.2120 -8.2780 -4.6872 -0.7698 -5.6026 15.6357 -3.8578 4.5442 45.4515 9.6070 6.0767 0.2274 10.1488 3.4138 -23.8338 0.6552 0.7888 -0.4840 -12.9907 -0.4636 -13.3458 -4.0916 0.3516 -3.8919 0.0000 -0.0000 0.0000 -82.2676 -51.7496 59.4684 122.0637 -55.7345 -87.3703 -0.0000 -0.0000 4.1549 64.9667 -29.9105 -46.8761 -7.1250 0.0000 -0.0000 18.2066 -21.5094 -24.5627 0.0000 -0.0000 0.0000 74.4080 58.8404 60.7162 -113.6609 57.7752 -80.3379 0.0000 0.0000 1.3506 -23.1140 -24.8019 10.1510 7.1250 -0.0000 -0.0000 7.0486 -56.5182 -1.9973
-0.5604 16.9534 7.0844 -4.4566 1.8101 69.3264 0.0000 0.0000 0.0000 18.4724 -10.7298 -82.5909 0.4926 4.5000 12.4877 -0.0406 12.7638 -17.6298 5.7412 14.1727 43.9339 0.0000 0.0000 0.0000 5.3881 20.4820 -78.1732 -0.0721 -1.7320 4.7656 0.1803 -7.6332 -4.2794 -0.7211 -5.4264 15.1290 -4.4058 2.2635 45.7492 8.3589 2.5538 0.7124 10.9283 1.9865 -22.2322 4.2886 3.5593 -4.7288 -12.1488 3.7200 -11.9304 -4.4172 2.0817 -2.3925 0.0000 -0.0000 0.0000 -65.0277 -51.5465 42.6702 124.7171 -54.9160 -89.5527 -0.0000 -0.0000 6.4898 66.0185 -29.9172 -48.2697 -7.1250 0.0000 -0.0000 18.7618 -22.4547 -25.5313 0.0000 -0.0000 0.0000 91.1558 63.6805 78.4892 -113.2979 57.8463 -80.0307 0.0000 0.0000 3.4418 -22.9271 -25.6175 10.3636 7.1250 -0.0000 -0.0000 7.5979 -57.3206 -2.3018
